<?xml version="1.0" standalone="no"?>
<!DOCTYPE svg PUBLIC "-//W3C//DTD SVG 20010904//EN"
 "http://www.w3.org/TR/2001/REC-SVG-20010904/DTD/svg10.dtd">
<svg version="1.0" xmlns="http://www.w3.org/2000/svg"
 width="512.000000pt" height="512.000000pt" viewBox="0 0 512.000000 512.000000"
 preserveAspectRatio="xMidYMid meet">

<g transform="translate(0.000000,512.000000) scale(0.100000,-0.100000)"
fill="#233142" stroke="none">
<path d="M1540 4900 c-128 -20 -271 -102 -347 -201 -44 -57 -103 -172 -103
-201 0 -16 79 -18 1348 -21 1267 -2 1351 -4 1407 -21 331 -100 559 -345 619
-665 14 -73 16 -242 16 -1392 0 -1248 1 -1309 18 -1309 29 0 153 64 208 108
67 53 144 169 175 263 l24 74 0 1450 c0 1378 -1 1453 -18 1509 -60 195 -189
326 -387 392 -52 18 -121 19 -1480 20 -784 1 -1450 -2 -1480 -6z"/>
<path d="M630 4034 c-171 -45 -319 -178 -379 -340 -12 -31 -26 -91 -32 -133
-6 -49 -9 -580 -7 -1481 l3 -1405 22 -65 c63 -185 195 -315 378 -373 l70 -22
1450 0 c1379 0 1453 1 1510 18 175 55 304 173 372 343 l28 69 3 1463 c2 1309
1 1469 -14 1524 -50 193 -208 353 -400 403 -86 22 -2919 22 -3004 -1z m1613
-867 c30 -18 56 -44 74 -75 l28 -47 3 -347 3 -347 347 -3 347 -3 47 -28 c121
-71 142 -234 44 -332 -63 -62 -81 -65 -454 -65 l-331 0 -3 -347 -3 -348 -25
-45 c-38 -67 -96 -103 -174 -108 -71 -5 -120 14 -168 65 -56 59 -58 72 -58
443 l0 340 -340 0 c-285 0 -347 3 -378 16 -79 33 -132 110 -132 194 0 88 38
152 115 193 38 21 54 22 388 25 l347 3 0 332 c0 205 4 347 11 371 13 47 85
121 131 135 55 17 130 8 181 -22z"/>
</g>
</svg>
