<?xml version="1.0" standalone="no"?>
<!DOCTYPE svg PUBLIC "-//W3C//DTD SVG 20010904//EN"
 "http://www.w3.org/TR/2001/REC-SVG-20010904/DTD/svg10.dtd">
<svg version="1.0" xmlns="http://www.w3.org/2000/svg"
 width="100.000000pt" height="100.000000pt" viewBox="0 0 100.000000 100.000000"
 preserveAspectRatio="xMidYMid meet">

<g transform="translate(0.000000,100.000000) scale(0.100000,-0.100000)"
fill="#79d1c3" stroke="none">
<path d="M152 900 c-18 -11 -41 -34 -52 -52 -19 -31 -20 -51 -20 -349 0 -449
-30 -421 432 -417 439 4 408 -28 408 423 0 292 -1 312 -20 343 -11 18 -34 41
-52 52 -31 19 -51 20 -348 20 -297 0 -317 -1 -348 -20z m598 -241 c0 -12 -279
-339 -290 -339 -5 0 -51 39 -101 88 -76 73 -89 89 -77 99 11 10 29 -2 95 -63
l82 -74 131 154 c87 103 136 153 146 149 8 -3 14 -9 14 -14z"/>
</g>
</svg>
