<?xml version="1.0" standalone="no"?>
<!DOCTYPE svg PUBLIC "-//W3C//DTD SVG 20010904//EN"
 "http://www.w3.org/TR/2001/REC-SVG-20010904/DTD/svg10.dtd">
<svg version="1.0" xmlns="http://www.w3.org/2000/svg"
 width="512.000000pt" height="512.000000pt" viewBox="0 0 512.000000 512.000000"
 preserveAspectRatio="xMidYMid meet">

<g transform="translate(0.000000,512.000000) scale(0.100000,-0.100000)"
fill="#233142" stroke="none">
<path d="M1734 5111 c-132 -32 -246 -152 -269 -283 l-7 -38 -443 0 c-384 0
-449 -2 -494 -17 -97 -31 -169 -116 -191 -226 -30 -148 36 -283 169 -346 l56
-26 1970 -3 c2047 -3 2045 -3 2125 38 180 93 199 406 32 521 -83 57 -99 58
-578 59 l-442 0 -7 38 c-19 107 -96 207 -201 258 l-59 29 -815 2 c-448 1 -829
-2 -846 -6z"/>
<path d="M650 3863 c0 -38 82 -1429 180 -3053 25 -409 31 -449 81 -550 67
-134 175 -212 334 -245 72 -14 215 -15 1350 -13 1118 3 1276 5 1320 19 186 59
296 174 340 360 13 56 99 1404 195 3059 11 190 22 366 24 393 l5 47 -1914 0
c-1789 0 -1915 -1 -1915 -17z m1487 -1057 c42 -20 96 -66 242 -210 l187 -185
179 180 c142 141 193 186 240 210 80 39 148 47 228 25 157 -43 257 -183 244
-343 -8 -108 -35 -147 -241 -352 l-185 -185 185 -188 c222 -225 239 -254 239
-388 0 -68 -5 -94 -23 -131 -37 -75 -87 -125 -159 -161 -58 -28 -77 -33 -143
-33 -127 1 -162 23 -382 243 l-188 186 -193 -191 c-219 -219 -246 -236 -362
-237 -94 -1 -162 24 -226 82 -104 93 -137 234 -88 369 19 51 43 80 212 250
l191 193 -191 192 c-168 171 -192 200 -211 251 -27 72 -29 172 -5 241 21 59
100 149 154 177 90 45 202 47 296 5z"/>
</g>
</svg>
