<?xml version="1.0" standalone="no"?>
<!DOCTYPE svg PUBLIC "-//W3C//DTD SVG 20010904//EN"
 "http://www.w3.org/TR/2001/REC-SVG-20010904/DTD/svg10.dtd">
<svg version="1.0" xmlns="http://www.w3.org/2000/svg"
 width="512.000000pt" height="512.000000pt" viewBox="0 0 512.000000 512.000000"
 preserveAspectRatio="xMidYMid meet">

<g transform="translate(0.000000,512.000000) scale(0.100000,-0.100000)"
fill="#000000" stroke="none">
<path d="M2815 4714 c-893 -72 -1625 -642 -1906 -1484 -38 -114 -89 -341 -89
-396 -1 -72 -16 -56 -202 203 -190 263 -220 299 -273 326 -112 55 -256 7 -314
-107 -35 -67 -35 -155 0 -217 14 -24 193 -277 398 -562 263 -365 384 -525 409
-542 77 -49 164 -55 240 -15 21 10 145 96 278 192 132 95 357 256 499 358 143
102 278 204 302 227 99 98 91 253 -19 347 -67 58 -165 73 -243 37 -22 -10
-161 -105 -310 -212 -148 -107 -276 -199 -284 -203 -20 -12 -10 115 19 249 76
347 271 678 536 907 672 581 1662 548 2285 -75 410 -410 581 -991 455 -1547
-80 -354 -252 -646 -527 -894 -328 -296 -803 -457 -1235 -418 -422 39 -744
187 -1066 491 -68 64 -119 103 -144 112 -157 52 -317 -61 -316 -226 0 -84 26
-131 132 -237 277 -273 622 -466 1006 -562 176 -44 303 -59 514 -59 482 0 896
137 1290 427 110 81 295 258 383 366 197 244 352 557 422 855 78 329 79 672 3
1000 -119 518 -454 1000 -902 1299 -257 172 -575 294 -887 340 -108 16 -362
27 -454 20z"/>
</g>
</svg>
